<svg id="visual" viewBox="0 0 900 600" width="900" height="600" xmlns="http://www.w3.org/2000/svg" xmlns:xlink="http://www.w3.org/1999/xlink" version="1.1"><path d="M342 0L334.2 14.3C326.3 28.7 310.7 57.3 295.5 85.8C280.3 114.3 265.7 142.7 268 171.2C270.3 199.7 289.7 228.3 302.7 257C315.7 285.7 322.3 314.3 312 343C301.7 371.7 274.3 400.3 258.3 428.8C242.3 457.3 237.7 485.7 247.3 514.2C257 542.7 281 571.3 293 585.7L305 600L0 600L0 585.7C0 571.3 0 542.7 0 514.2C0 485.7 0 457.3 0 428.8C0 400.3 0 371.7 0 343C0 314.3 0 285.7 0 257C0 228.3 0 199.7 0 171.2C0 142.7 0 114.3 0 85.8C0 57.3 0 28.7 0 14.3L0 0Z" fill="#e03428"></path><path d="M192 0L199.2 14.3C206.3 28.7 220.7 57.3 218.7 85.8C216.7 114.3 198.3 142.7 203.7 171.2C209 199.7 238 228.3 250.7 257C263.3 285.7 259.7 314.3 254.5 343C249.3 371.7 242.7 400.3 240 428.8C237.3 457.3 238.7 485.7 230.3 514.2C222 542.7 204 571.3 195 585.7L186 600L0 600L0 585.7C0 571.3 0 542.7 0 514.2C0 485.7 0 457.3 0 428.8C0 400.3 0 371.7 0 343C0 314.3 0 285.7 0 257C0 228.3 0 199.7 0 171.2C0 142.7 0 114.3 0 85.8C0 57.3 0 28.7 0 14.3L0 0Z" fill="#de283b"></path><path d="M190 0L191.5 14.3C193 28.7 196 57.3 192.3 85.8C188.7 114.3 178.3 142.7 179.5 171.2C180.7 199.7 193.3 228.3 197 257C200.7 285.7 195.3 314.3 188.2 343C181 371.7 172 400.3 172.5 428.8C173 457.3 183 485.7 192 514.2C201 542.7 209 571.3 213 585.7L217 600L0 600L0 585.7C0 571.3 0 542.7 0 514.2C0 485.7 0 457.3 0 428.8C0 400.3 0 371.7 0 343C0 314.3 0 285.7 0 257C0 228.3 0 199.7 0 171.2C0 142.7 0 114.3 0 85.8C0 57.3 0 28.7 0 14.3L0 0Z" fill="#d9204c"></path><path d="M117 0L121.3 14.3C125.7 28.7 134.3 57.3 132.3 85.8C130.3 114.3 117.7 142.7 119.8 171.2C122 199.7 139 228.3 136.3 257C133.7 285.7 111.3 314.3 110.7 343C110 371.7 131 400.3 134.8 428.8C138.7 457.3 125.3 485.7 122.3 514.2C119.3 542.7 126.7 571.3 130.3 585.7L134 600L0 600L0 585.7C0 571.3 0 542.7 0 514.2C0 485.7 0 457.3 0 428.8C0 400.3 0 371.7 0 343C0 314.3 0 285.7 0 257C0 228.3 0 199.7 0 171.2C0 142.7 0 114.3 0 85.8C0 57.3 0 28.7 0 14.3L0 0Z" fill="#d11f5b"></path><path d="M103 0L98.5 14.3C94 28.7 85 57.3 84.2 85.8C83.3 114.3 90.7 142.7 84.7 171.2C78.7 199.7 59.3 228.3 58.2 257C57 285.7 74 314.3 79.7 343C85.3 371.7 79.7 400.3 72.7 428.8C65.7 457.3 57.3 485.7 60.5 514.2C63.7 542.7 78.3 571.3 85.7 585.7L93 600L0 600L0 585.7C0 571.3 0 542.7 0 514.2C0 485.7 0 457.3 0 428.8C0 400.3 0 371.7 0 343C0 314.3 0 285.7 0 257C0 228.3 0 199.7 0 171.2C0 142.7 0 114.3 0 85.8C0 57.3 0 28.7 0 14.3L0 0Z" fill="#c62368"></path></svg>